<svg width="20" height="20" viewBox="0 0 20 20" fill="none" xmlns="http://www.w3.org/2000/svg">
<path d="M11.5 4.34141C13.2048 4.94398 14.556 6.29517 15.1586 8M12.4655 1.5C15.0505 2.40178 17.0982 4.44948 18 7.03451M9.08101 11.419C7.98312 10.3211 7.1162 9.07969 6.48026 7.75516C6.42556 7.64123 6.39821 7.58426 6.3772 7.51218C6.30252 7.25601 6.35616 6.94146 6.5115 6.72452C6.55521 6.66347 6.60744 6.61125 6.71189 6.5068C7.03133 6.18736 7.19105 6.02764 7.29547 5.86703C7.68927 5.26134 7.68927 4.4805 7.29547 3.87481C7.19104 3.7142 7.03133 3.55448 6.71189 3.23504L6.53383 3.05699C6.04825 2.5714 5.80546 2.32861 5.5447 2.19672C5.02611 1.93443 4.41369 1.93443 3.8951 2.19672C3.63434 2.32861 3.39155 2.57141 2.90597 3.05699L2.76193 3.20102C2.27801 3.68494 2.03605 3.92691 1.85126 4.25587C1.6462 4.6209 1.49876 5.18785 1.50001 5.60653C1.50113 5.98385 1.57432 6.24172 1.72071 6.75746C2.50738 9.52911 3.99168 12.1445 6.1736 14.3264C8.35553 16.5083 10.9709 17.9926 13.7425 18.7793C14.2583 18.9257 14.5162 18.9989 14.8935 19C15.3121 19.0012 15.8791 18.8538 16.2441 18.6487C16.5731 18.4639 16.8151 18.222 17.299 17.7381L17.443 17.594C17.9286 17.1084 18.1714 16.8657 18.3033 16.6049C18.5656 16.0863 18.5656 15.4739 18.3033 14.9553C18.1714 14.6945 17.9286 14.4518 17.443 13.9662L17.265 13.7881C16.9455 13.4687 16.7858 13.309 16.6252 13.2045C16.0195 12.8107 15.2387 12.8107 14.633 13.2045C14.4724 13.309 14.3126 13.4687 13.9932 13.7881C13.8888 13.8926 13.8365 13.9448 13.7755 13.9885C13.5585 14.1438 13.244 14.1975 12.9878 14.1228C12.9157 14.1018 12.8588 14.0744 12.7448 14.0197C11.4203 13.3838 10.1789 12.5169 9.08101 11.419Z" stroke="#36B389" stroke-width="2" stroke-linecap="round"/>
</svg>
